<svg xmlns="http://www.w3.org/2000/svg" viewBox="-425.188 234.9 42.48 42.9">
	<path d="M -403.8 234.9 c -0.4 0 -0.8 0.2 -1.2 0.5 c -0.3 0.3 -0.6 0.8 -0.8 1.4 c -0.5 1.2 -0.7 2.9 -0.9 4.9 c -0.2 2 -0.2 4.3 -0.1 6.8 c -5.5 2.3 -16.7 6.9 -17.6 8 c -1.2 1.4 -0.8 3 -0.3 4 l 18.4 -3.7 c 0.4 4.9 0.9 9.7 1.4 13.5 c -1.8 0.5 -5.2 1.6 -5.9 2.2 c -1 0.9 -1 3.8 -1 3.8 l 7.5 -0.6 c 0.2 1.2 0.3 2 0.3 2 l 0 0.1 h 0.1 h 0.1 h 0.1 l 0 -0.1 c 0 0 0.1 -0.7 0.3 -2 l 7.5 0.6 c 0 0 0 -2.9 -1 -3.8 c -0.7 -0.6 -4.1 -1.7 -5.9 -2.2 c 0.5 -3.8 1 -8.6 1.4 -13.5 l 18.2 3.7 c 0.5 -1.1 0.9 -2.6 -0.3 -4 c -0.9 -1 -11.8 -5.6 -17.4 -7.9 c 0.1 -2.5 0 -4.9 -0.1 -6.9 v 0 c -0.2 -2 -0.4 -3.7 -0.9 -4.9 c -0.2 -0.6 -0.5 -1.1 -0.8 -1.4 C -402.9 235.1 -403.3 234.9 -403.8 234.9 L -403.8 234.9 L -403.8 234.9 z" fill="#ffffff"/>
</svg>